<svg xmlns="http://www.w3.org/2000/svg" xmlns:xlink="http://www.w3.org/1999/xlink" width="3000" zoomAndPan="magnify" viewBox="0 0 2250 1799.999925" height="2400" preserveAspectRatio="xMidYMid meet" version="1.0"><defs><clipPath id="35351edf8f"><path d="M 180 180 L 1972 180 L 1972 1553.25 L 180 1553.25 Z M 180 180 " clip-rule="nonzero"/></clipPath><clipPath id="988ccb00c7"><path d="M 241.167969 246.777344 L 2033 246.777344 L 2033 1620.027344 L 241.167969 1620.027344 Z M 241.167969 246.777344 " clip-rule="nonzero"/></clipPath></defs><g clip-path="url(#35351edf8f)"><path fill="#aad9ed" d="M 1328.84375 729.3125 L 1328.84375 1049.738281 C 1328.84375 1100.296875 1287.726562 1141.285156 1236.992188 1141.285156 C 1186.273438 1141.285156 1145.144531 1100.296875 1145.144531 1049.738281 L 1145.144531 729.3125 C 1145.144531 678.753906 1186.273438 637.765625 1236.992188 637.765625 C 1287.726562 637.753906 1328.84375 678.742188 1328.84375 729.3125 Z M 1558.460938 317.347656 C 1507.738281 317.347656 1466.609375 358.324219 1466.609375 408.894531 L 1466.609375 1324.402344 C 1466.609375 1374.957031 1507.738281 1415.945312 1558.460938 1415.945312 C 1609.191406 1415.945312 1650.308594 1374.957031 1650.308594 1324.402344 L 1650.308594 408.894531 C 1650.308594 358.335938 1609.179688 317.347656 1558.460938 317.347656 Z M 272.597656 683.53125 L 272.574219 683.53125 C 221.84375 683.53125 180.726562 724.519531 180.726562 775.078125 L 180.726562 958.183594 C 180.726562 1008.738281 221.84375 1049.730469 272.574219 1049.730469 L 272.609375 1049.730469 C 323.339844 1049.730469 364.457031 1008.738281 364.457031 958.183594 L 364.457031 775.078125 C 364.445312 724.519531 323.328125 683.53125 272.597656 683.53125 Z M 594.0625 408.882812 C 543.332031 408.882812 502.214844 449.871094 502.214844 500.429688 L 502.214844 1278.609375 C 502.214844 1329.167969 543.332031 1370.15625 594.050781 1370.15625 L 594.0625 1370.15625 C 644.792969 1370.15625 685.910156 1329.167969 685.910156 1278.609375 L 685.910156 500.429688 C 685.910156 449.871094 644.792969 408.882812 594.0625 408.882812 Z M 915.539062 180 C 864.808594 180 823.691406 220.988281 823.691406 271.546875 L 823.691406 1461.691406 C 823.691406 1512.261719 864.808594 1553.238281 915.539062 1553.238281 C 966.261719 1553.238281 1007.386719 1512.25 1007.386719 1461.691406 L 1007.386719 271.546875 C 1007.386719 220.988281 966.261719 180 915.539062 180 Z M 1879.925781 729.320312 C 1829.191406 729.320312 1788.074219 770.3125 1788.074219 820.867188 L 1788.074219 958.191406 C 1788.074219 1008.75 1829.191406 1049.738281 1879.925781 1049.738281 C 1930.644531 1049.738281 1971.773438 1008.75 1971.773438 958.191406 L 1971.773438 820.867188 C 1971.773438 770.3125 1930.644531 729.320312 1879.925781 729.320312 Z M 1879.925781 729.320312 " fill-opacity="1" fill-rule="nonzero"/></g><g clip-path="url(#988ccb00c7)"><path fill="#000000" d="M 1390.011719 796.089844 L 1390.011719 1116.515625 C 1390.011719 1167.074219 1348.894531 1208.0625 1298.160156 1208.0625 C 1247.441406 1208.0625 1206.3125 1167.074219 1206.3125 1116.515625 L 1206.3125 796.089844 C 1206.3125 745.53125 1247.441406 704.542969 1298.160156 704.542969 C 1348.894531 704.53125 1390.011719 745.519531 1390.011719 796.089844 Z M 1619.628906 384.125 C 1568.90625 384.125 1527.777344 425.101562 1527.777344 475.671875 L 1527.777344 1391.179688 C 1527.777344 1441.734375 1568.90625 1482.722656 1619.628906 1482.722656 C 1670.359375 1482.722656 1711.476562 1441.734375 1711.476562 1391.179688 L 1711.476562 475.671875 C 1711.476562 425.113281 1670.347656 384.125 1619.628906 384.125 Z M 333.765625 750.308594 L 333.742188 750.308594 C 283.011719 750.308594 241.894531 791.296875 241.894531 841.855469 L 241.894531 1024.960938 C 241.894531 1075.515625 283.011719 1116.507812 333.742188 1116.507812 L 333.777344 1116.507812 C 384.507812 1116.507812 425.625 1075.515625 425.625 1024.960938 L 425.625 841.855469 C 425.613281 791.296875 384.496094 750.308594 333.765625 750.308594 Z M 655.230469 475.660156 C 604.5 475.660156 563.382812 516.648438 563.382812 567.207031 L 563.382812 1345.386719 C 563.382812 1395.945312 604.5 1436.933594 655.21875 1436.933594 L 655.230469 1436.933594 C 705.960938 1436.933594 747.078125 1395.945312 747.078125 1345.386719 L 747.078125 567.207031 C 747.078125 516.648438 705.960938 475.660156 655.230469 475.660156 Z M 976.707031 246.777344 C 925.976562 246.777344 884.859375 287.765625 884.859375 338.324219 L 884.859375 1528.46875 C 884.859375 1579.039062 925.976562 1620.015625 976.707031 1620.015625 C 1027.429688 1620.015625 1068.554688 1579.027344 1068.554688 1528.46875 L 1068.554688 338.324219 C 1068.554688 287.765625 1027.429688 246.777344 976.707031 246.777344 Z M 1941.09375 796.097656 C 1890.359375 796.097656 1849.242188 837.089844 1849.242188 887.644531 L 1849.242188 1024.96875 C 1849.242188 1075.527344 1890.359375 1116.515625 1941.09375 1116.515625 C 1991.8125 1116.515625 2032.941406 1075.527344 2032.941406 1024.96875 L 2032.941406 887.644531 C 2032.941406 837.089844 1991.8125 796.097656 1941.09375 796.097656 Z M 1941.09375 796.097656 " fill-opacity="1" fill-rule="nonzero"/></g></svg>