<svg xmlns="http://www.w3.org/2000/svg" xmlns:xlink="http://www.w3.org/1999/xlink" width="500" zoomAndPan="magnify" viewBox="0 0 375 374.999991" height="500" preserveAspectRatio="xMidYMid meet" version="1.0"><defs><clipPath id="3b7e38e74f"><path d="M 37.5 70.953125 L 327.75 70.953125 L 327.75 292.953125 L 37.5 292.953125 Z M 37.5 70.953125 " clip-rule="nonzero"/></clipPath><clipPath id="ba913534fc"><path d="M 47.402344 81.761719 L 337.652344 81.761719 L 337.652344 303.761719 L 47.402344 303.761719 Z M 47.402344 81.761719 " clip-rule="nonzero"/></clipPath></defs><g clip-path="url(#3b7e38e74f)"><path fill="#aad9ed" d="M 223.523438 159.753906 L 223.523438 211.554688 C 223.523438 219.726562 216.867188 226.351562 208.652344 226.351562 C 200.441406 226.351562 193.78125 219.726562 193.78125 211.554688 L 193.78125 159.753906 C 193.78125 151.578125 200.441406 144.953125 208.652344 144.953125 C 216.867188 144.953125 223.523438 151.578125 223.523438 159.753906 Z M 260.703125 93.15625 C 252.492188 93.15625 245.832031 99.78125 245.832031 107.953125 L 245.832031 255.957031 C 245.832031 264.128906 252.492188 270.753906 260.703125 270.753906 C 268.917969 270.753906 275.578125 264.128906 275.578125 255.957031 L 275.578125 107.953125 C 275.578125 99.78125 268.917969 93.15625 260.703125 93.15625 Z M 52.496094 152.351562 L 52.492188 152.351562 C 44.277344 152.351562 37.621094 158.980469 37.621094 167.152344 L 37.621094 196.753906 C 37.621094 204.925781 44.277344 211.550781 52.492188 211.550781 L 52.5 211.550781 C 60.714844 211.550781 67.371094 204.925781 67.371094 196.753906 L 67.371094 167.152344 C 67.371094 158.980469 60.710938 152.351562 52.496094 152.351562 Z M 104.550781 107.953125 C 96.335938 107.953125 89.675781 114.578125 89.675781 122.75 L 89.675781 248.554688 C 89.675781 256.726562 96.335938 263.351562 104.546875 263.351562 L 104.550781 263.351562 C 112.761719 263.351562 119.421875 256.726562 119.421875 248.554688 L 119.421875 122.75 C 119.421875 114.578125 112.761719 107.953125 104.550781 107.953125 Z M 156.601562 70.953125 C 148.386719 70.953125 141.730469 77.578125 141.730469 85.75 L 141.730469 278.148438 C 141.730469 286.324219 148.386719 292.949219 156.601562 292.949219 C 164.816406 292.949219 171.476562 286.324219 171.476562 278.148438 L 171.476562 85.75 C 171.476562 77.578125 164.816406 70.953125 156.601562 70.953125 Z M 312.757812 159.753906 C 304.542969 159.753906 297.882812 166.382812 297.882812 174.554688 L 297.882812 196.753906 C 297.882812 204.925781 304.542969 211.554688 312.757812 211.554688 C 320.96875 211.554688 327.628906 204.925781 327.628906 196.753906 L 327.628906 174.554688 C 327.628906 166.382812 320.96875 159.753906 312.757812 159.753906 Z M 312.757812 159.753906 " fill-opacity="1" fill-rule="nonzero"/></g><g clip-path="url(#ba913534fc)"><path fill="#000000" d="M 233.425781 170.5625 L 233.425781 222.363281 C 233.425781 230.535156 226.769531 237.164062 218.554688 237.164062 C 210.339844 237.164062 203.683594 230.535156 203.683594 222.363281 L 203.683594 170.5625 C 203.683594 162.390625 210.339844 155.761719 218.554688 155.761719 C 226.769531 155.761719 233.425781 162.386719 233.425781 170.5625 Z M 270.605469 103.964844 C 262.394531 103.964844 255.734375 110.589844 255.734375 118.765625 L 255.734375 266.765625 C 255.734375 274.9375 262.394531 281.5625 270.605469 281.5625 C 278.820312 281.5625 285.476562 274.9375 285.476562 266.765625 L 285.476562 118.765625 C 285.476562 110.589844 278.820312 103.964844 270.605469 103.964844 Z M 62.398438 163.160156 L 62.394531 163.160156 C 54.179688 163.160156 47.523438 169.789062 47.523438 177.960938 L 47.523438 207.5625 C 47.523438 215.734375 54.179688 222.363281 62.394531 222.363281 L 62.402344 222.363281 C 70.613281 222.363281 77.273438 215.734375 77.273438 207.5625 L 77.273438 177.960938 C 77.269531 169.789062 70.613281 163.160156 62.398438 163.160156 Z M 114.449219 118.761719 C 106.234375 118.761719 99.578125 125.386719 99.578125 133.5625 L 99.578125 259.363281 C 99.578125 267.535156 106.234375 274.160156 114.449219 274.160156 C 122.664062 274.160156 129.324219 267.535156 129.324219 259.363281 L 129.324219 133.5625 C 129.324219 125.386719 122.664062 118.761719 114.449219 118.761719 Z M 166.503906 81.761719 C 158.289062 81.761719 151.632812 88.386719 151.632812 96.558594 L 151.632812 288.960938 C 151.632812 297.132812 158.289062 303.757812 166.503906 303.757812 C 174.71875 303.757812 181.375 297.132812 181.375 288.960938 L 181.375 96.558594 C 181.375 88.386719 174.71875 81.761719 166.503906 81.761719 Z M 322.65625 170.5625 C 314.441406 170.5625 307.785156 177.191406 307.785156 185.363281 L 307.785156 207.5625 C 307.785156 215.738281 314.441406 222.363281 322.65625 222.363281 C 330.871094 222.363281 337.53125 215.738281 337.53125 207.5625 L 337.53125 185.363281 C 337.53125 177.191406 330.871094 170.5625 322.65625 170.5625 Z M 322.65625 170.5625 " fill-opacity="1" fill-rule="nonzero"/></g></svg>